<svg xmlns="http://www.w3.org/2000/svg" 
 width="25" 
height="25"
viewBox="0 0 240 240">

<defs>
<linearGradient id="a" x1="1" x2="0" y2="1">

<stop offset="0" stop-color="#37aee2"/>
<stop offset="1" stop-color="#1e96c8"/>
</linearGradient>

<linearGradient id="b" x1="1" x2="1" y2="1"><stop offset="0" stop-color="#eff7fc"/>

<stop offset="1" stop-color="#fff"/>

</linearGradient></defs><circle cx="120" cy="120" r="120" fill="url(#a)"/>

<path fill="#c8daea" d="M98 175c-4 0-3-1-5-5l-11-38 88-52"/>
<path fill="#a9c9dd" d="M98 175c3 0 4-1 6-3l16-16-20-12"/>
<path fill="url(#b)" d="M100 144l48 36c6 3 10 2 11-5l20-93c2-8-3-11-8-9L55 117c-8 4-8 8-1 10l29 9 69-43c3-2 6-1 4 1"/>

</svg>